<svg xmlns="http://www.w3.org/2000/svg" viewBox="0 0 512 512" role="img" aria-labelledby="title desc">
  <title id="title">Lift icon</title>
  <desc id="desc">White dumbbell glyph on a vibrant glass gradient background.</desc>
  <defs>
    <linearGradient id="bg" x1="70" y1="56" x2="450" y2="462" gradientUnits="userSpaceOnUse">
      <stop offset="0" stop-color="#0a84ff"/>
      <stop offset=".46" stop-color="#ff2d55"/>
      <stop offset="1" stop-color="#ff9500"/>
    </linearGradient>
    <linearGradient id="shine" x1="92" y1="28" x2="398" y2="390" gradientUnits="userSpaceOnUse">
      <stop offset="0" stop-color="#fff" stop-opacity=".54"/>
      <stop offset=".42" stop-color="#fff" stop-opacity=".12"/>
      <stop offset="1" stop-color="#fff" stop-opacity="0"/>
    </linearGradient>
    <filter id="lift-shadow" x="-20%" y="-20%" width="140%" height="150%">
      <feDropShadow dx="0" dy="18" stdDeviation="16" flood-color="#111827" flood-opacity=".28"/>
    </filter>
  </defs>
  <rect width="512" height="512" rx="108" fill="url(#bg)"/>
  <path d="M40 110C148 44 284 24 472 50v226C314 234 180 274 40 396Z" fill="url(#shine)"/>
  <path d="M0 356c118-56 212-54 326 5 70 37 125 46 186 20v131H0Z" fill="#23d1cf" opacity=".18"/>
  <g fill="#fff" filter="url(#lift-shadow)">
    <rect x="88" y="204" width="58" height="104" rx="14"/>
    <rect x="156" y="184" width="48" height="144" rx="14"/>
    <rect x="196" y="238" width="120" height="36" rx="18"/>
    <rect x="308" y="184" width="48" height="144" rx="14"/>
    <rect x="366" y="204" width="58" height="104" rx="14"/>
  </g>
</svg>
